<!-- by TradingView --><svg width="56" height="56" xmlns="http://www.w3.org/2000/svg"><path fill="#F7931A" d="M0 0h56v56H0z"/><path d="M37.283 18.234c-1.375-3.517-4.84-3.839-8.892-3.035l-1.428-5.053-3.072.893 1.41 4.874-2.445.732-1.41-4.928-3.036.893 1.428 5-1.946.607v-.018l-4.214 1.196.929 3.267s2.25-.696 2.232-.642c1.232-.357 1.839.25 2.142.839l1.643 5.713.321-.053-.321.09 2.303 8.016c.054.41 0 1.09-.857 1.34.036.017-2.232.642-2.232.642l.447 3.82 3.963-1.142 2.197-.607 1.464 5.07 3.035-.874-1.428-5.017c.818-.218 1.633-.444 2.446-.679l1.428 5 3.071-.875-1.464-5.071c5.053-1.768 8.285-4.107 7.356-9.052-.767-3.982-3.089-5.196-6.195-5.053 1.5-1.429 2.142-3.322 1.142-5.893h-.017zM36.14 30.322c1.071 3.803-5.535 5.232-7.606 5.839l-1.929-6.732c2.072-.607 8.392-3.053 9.535.893zm-4.142-9.088c.982 3.464-4.553 4.607-6.285 5.106l-1.75-6.106c1.732-.482 6.999-2.589 8.035 1.018v-.018z" fill="#fff"/></svg>