<svg width="48" height="48" viewBox="0 0 48 48" fill="none" xmlns="http://www.w3.org/2000/svg">
<circle cx="24" cy="24" r="24" fill="#4F4367"/>
<path fill-rule="evenodd" clip-rule="evenodd" d="M24.2093 8.03597C24.2397 8.04673 24.2696 8.05992 24.2984 8.07553C24.3355 8.0955 24.3707 8.11925 24.4033 8.14658L32.7599 14.8318C32.9061 14.9468 33 15.1253 33 15.3257V32.0699C33 32.2254 32.9424 32.374 32.8404 32.4882C32.8273 32.5028 32.8135 32.5169 32.799 32.5304C32.7864 32.5421 32.7733 32.5532 32.7598 32.5638L24.4027 39.2495C24.398 39.2535 24.3932 39.2574 24.3883 39.2612C24.366 39.2787 24.3427 39.2946 24.3185 39.3088C24.3083 39.3148 24.2979 39.3205 24.2874 39.3259C24.2613 39.3394 24.2345 39.3509 24.2071 39.3604C24.1392 39.3843 24.0692 39.3957 24 39.3956C23.9308 39.3957 23.8608 39.3843 23.7929 39.3604C23.7614 39.3494 23.7306 39.3358 23.7008 39.3197C23.6688 39.3024 23.6382 39.2823 23.6095 39.2595L23.5967 39.249L15.2402 32.5638C15.2267 32.5532 15.2136 32.5421 15.201 32.5304C15.0774 32.4157 15 32.2518 15 32.0699V15.3257C15 15.1438 15.0774 14.9799 15.201 14.8652C15.2136 14.8536 15.2266 14.8424 15.2401 14.8318L23.5967 8.14657C23.6293 8.11925 23.6645 8.0955 23.7016 8.07553C23.7306 8.05986 23.7605 8.04663 23.7911 8.03584C23.8596 8.01157 23.9302 7.99995 24 8C24.0699 7.99995 24.1406 8.01161 24.2093 8.03597ZM17.4179 32.6978L22.1599 36.4914L20.2631 32.6978H17.4179ZM20.0233 31.442H16.2558V15.9536H20.0233V31.442ZM21.6671 32.6978L24 37.3635L26.3329 32.6978H21.6671ZM26.7209 31.442H21.2791V15.9536H26.7209V31.442ZM27.7369 32.6978L25.8401 36.4914L30.5821 32.6978H27.7369ZM31.7442 31.442H27.9767V15.9536H31.7442V31.442ZM25.8401 10.9043L30.5821 14.6978H27.7369L25.8401 10.9043ZM24 10.0321L26.3329 14.6978H21.6671L24 10.0321ZM22.1599 10.9043L20.2631 14.6978H17.4179L22.1599 10.9043Z" fill="url(#paint0_linear)"/>
<defs>
<linearGradient id="paint0_linear" x1="24" y1="8" x2="24" y2="39.3956" gradientUnits="userSpaceOnUse">
<stop stop-color="#FFEBBD"/>
<stop offset="1" stop-color="#FFB300"/>
</linearGradient>
</defs>
</svg>
