<!-- by TradingView --><svg width="56" height="56" xmlns="http://www.w3.org/2000/svg"><path fill="#F0F3FA" d="M0 0h56v56H0z"/><path d="M35 23.573v8.25L43 28v-8.552l-8 4.125z" fill="#9290B0"/><path d="M43 35.948l-8-4.125v8.25l8 4.125v-8.25z" fill="#A2EEE3"/><path d="M28 19.448v-8.25l-15 8.25 8.01 4.126L28 19.448z" fill="#46DDC8"/><path d="M28 35.948l-7.026-4.136L13 35.948l7.5 4.137 7.5 4.113v-8.25z" fill="#262261"/><path d="M13 19.448v16.5l8-4.125v-8.25l-8-4.125z" fill="#9290B0"/><path d="M35 31.823l-7 4.125v8.25l7-4.113v-8.262z" fill="#46DDC8"/><path d="M43 19.448l-7.507-4.125L28 11.198v8.25l7.004 4.125L43 19.448z" fill="#262261"/></svg>