<svg width="56" height="56" viewBox="0 0 56 56" fill="none" xmlns="http://www.w3.org/2000/svg">
<path d="M0 0H56V56H0V0Z" fill="#F7931A"/>
<path d="M25.9091 38.3196C24.4176 38.3196 23.0668 37.9361 21.8565 37.169C20.6548 36.3935 19.7003 35.2557 18.9929 33.7557C18.294 32.2472 17.9446 30.3977 17.9446 28.2074C17.9446 25.9574 18.3068 24.0866 19.0312 22.5952C19.7557 21.0952 20.7188 19.9744 21.9205 19.233C23.1307 18.483 24.456 18.108 25.8963 18.108C26.9957 18.108 27.9119 18.2955 28.6449 18.6705C29.3864 19.0369 29.983 19.4972 30.4347 20.0511C30.8949 20.5966 31.2443 21.1335 31.483 21.6619H31.6491V11.8182H37.0824V38H31.7131V34.8551H31.483C31.2273 35.4006 30.8651 35.9418 30.3963 36.4787C29.9361 37.0071 29.3352 37.446 28.5938 37.7955C27.8608 38.1449 26.9659 38.3196 25.9091 38.3196ZM27.6349 33.9858C28.5128 33.9858 29.2543 33.7472 29.8594 33.2699C30.473 32.7841 30.9418 32.1065 31.2656 31.2372C31.598 30.3679 31.7642 29.3494 31.7642 28.1818C31.7642 27.0142 31.6023 26 31.2784 25.1392C30.9545 24.2784 30.4858 23.6136 29.8722 23.1449C29.2585 22.6761 28.5128 22.4418 27.6349 22.4418C26.7401 22.4418 25.9858 22.6847 25.3722 23.1705C24.7585 23.6562 24.294 24.3295 23.9787 25.1903C23.6634 26.0511 23.5057 27.0483 23.5057 28.1818C23.5057 29.3239 23.6634 30.3338 23.9787 31.2116C24.3026 32.081 24.767 32.7628 25.3722 33.2571C25.9858 33.7429 26.7401 33.9858 27.6349 33.9858ZM26.5611 17.0213V13.8125H39.3196V17.0213H26.5611ZM36.392 40.429V44.5582H19.1974V40.429H36.392Z" fill="white"/>
</svg>
